<svg width="142" height="13" viewBox="0 0 142 13" fill="none" xmlns="http://www.w3.org/2000/svg">
<path d="M11.1861 4.28977H9.06108C9.00047 3.94129 8.88873 3.63258 8.72585 3.36364C8.56297 3.09091 8.36032 2.85985 8.1179 2.67045C7.87547 2.48106 7.59896 2.33901 7.28835 2.24432C6.98153 2.14583 6.65009 2.09659 6.29403 2.09659C5.66146 2.09659 5.10085 2.25568 4.61222 2.57386C4.12358 2.88826 3.741 3.35038 3.46449 3.96023C3.18797 4.56629 3.04972 5.30682 3.04972 6.18182C3.04972 7.07197 3.18797 7.82197 3.46449 8.43182C3.74479 9.03788 4.12737 9.49621 4.61222 9.80682C5.10085 10.1136 5.65956 10.267 6.28835 10.267C6.63684 10.267 6.96259 10.2216 7.26562 10.1307C7.57244 10.036 7.84706 9.89773 8.08949 9.71591C8.3357 9.53409 8.54214 9.31061 8.70881 9.04545C8.87926 8.7803 8.99669 8.47727 9.06108 8.13636L11.1861 8.14773C11.1065 8.70076 10.9342 9.2197 10.669 9.70455C10.4077 10.1894 10.0649 10.6174 9.64062 10.9886C9.21638 11.3561 8.72017 11.6439 8.15199 11.8523C7.58381 12.0568 6.95313 12.1591 6.25994 12.1591C5.23722 12.1591 4.32434 11.9223 3.52131 11.4489C2.71828 10.9754 2.0857 10.2917 1.62358 9.39773C1.16146 8.50379 0.930398 7.43182 0.930398 6.18182C0.930398 4.92803 1.16335 3.85606 1.62926 2.96591C2.09517 2.07197 2.72964 1.38826 3.53267 0.914772C4.3357 0.441287 5.24479 0.204545 6.25994 0.204545C6.90767 0.204545 7.50994 0.295454 8.06676 0.477272C8.62358 0.659091 9.11979 0.926136 9.5554 1.27841C9.991 1.62689 10.349 2.05492 10.6293 2.5625C10.9134 3.06629 11.099 3.64205 11.1861 4.28977ZM13.0256 12V3.27273H15.0199V4.72727H15.1108C15.2699 4.22348 15.5426 3.83523 15.929 3.5625C16.3191 3.28598 16.7642 3.14773 17.2642 3.14773C17.3778 3.14773 17.5047 3.15341 17.6449 3.16477C17.7888 3.17235 17.9081 3.18561 18.0028 3.20455V5.09659C17.9157 5.06629 17.7775 5.03977 17.5881 5.01705C17.4025 4.99053 17.2225 4.97727 17.0483 4.97727C16.6733 4.97727 16.3362 5.05871 16.0369 5.22159C15.7415 5.38068 15.5085 5.60227 15.3381 5.88636C15.1676 6.17045 15.0824 6.49811 15.0824 6.86932V12H13.0256ZM22.8736 12.1705C21.9986 12.1705 21.2429 11.9886 20.6065 11.625C19.974 11.2576 19.4872 10.7386 19.1463 10.0682C18.8054 9.39394 18.6349 8.60038 18.6349 7.6875C18.6349 6.78977 18.8054 6.00189 19.1463 5.32386C19.491 4.64205 19.9721 4.11174 20.5895 3.73295C21.2069 3.35038 21.9323 3.15909 22.7656 3.15909C23.3035 3.15909 23.8111 3.24621 24.2884 3.42045C24.7694 3.59091 25.1937 3.85606 25.5611 4.21591C25.9323 4.57576 26.224 5.03409 26.4361 5.59091C26.6482 6.14394 26.7543 6.80303 26.7543 7.56818V8.19886H19.6009V6.8125H24.7827C24.7789 6.41856 24.6937 6.06818 24.527 5.76136C24.3603 5.45076 24.1274 5.20644 23.8281 5.02841C23.5327 4.85038 23.188 4.76136 22.794 4.76136C22.3736 4.76136 22.0043 4.86364 21.6861 5.06818C21.3679 5.26894 21.1198 5.53409 20.9418 5.86364C20.7675 6.18939 20.6785 6.54735 20.6747 6.9375V8.14773C20.6747 8.6553 20.7675 9.09091 20.9531 9.45455C21.1387 9.81439 21.3982 10.0909 21.7315 10.2841C22.0649 10.4735 22.455 10.5682 22.902 10.5682C23.2012 10.5682 23.4721 10.5265 23.7145 10.4432C23.9569 10.3561 24.1671 10.2292 24.3452 10.0625C24.5232 9.89583 24.6577 9.68939 24.7486 9.44318L26.669 9.65909C26.5478 10.1667 26.3168 10.6098 25.9759 10.9886C25.6387 11.3636 25.2069 11.6553 24.6804 11.8636C24.1539 12.0682 23.5516 12.1705 22.8736 12.1705ZM31.0057 12.1761C30.4527 12.1761 29.9545 12.0777 29.5114 11.8807C29.072 11.6799 28.7235 11.3845 28.4659 10.9943C28.2121 10.6042 28.0852 10.1231 28.0852 9.55114C28.0852 9.05871 28.1761 8.65152 28.358 8.32955C28.5398 8.00758 28.7879 7.75 29.1023 7.55682C29.4167 7.36364 29.7708 7.2178 30.1648 7.11932C30.5625 7.01705 30.9735 6.94318 31.3977 6.89773C31.9091 6.8447 32.3239 6.79735 32.642 6.75568C32.9602 6.71023 33.1913 6.64205 33.3352 6.55114C33.483 6.45644 33.5568 6.31061 33.5568 6.11364V6.07955C33.5568 5.65152 33.4299 5.32008 33.1761 5.08523C32.9223 4.85038 32.5568 4.73295 32.0795 4.73295C31.5758 4.73295 31.1761 4.8428 30.8807 5.0625C30.589 5.2822 30.392 5.54167 30.2898 5.84091L28.3693 5.56818C28.5208 5.03788 28.7708 4.5947 29.1193 4.23864C29.4678 3.87879 29.8939 3.60985 30.3977 3.43182C30.9015 3.25 31.4583 3.15909 32.0682 3.15909C32.4886 3.15909 32.9072 3.20833 33.3239 3.30682C33.7405 3.4053 34.1212 3.56818 34.4659 3.79545C34.8106 4.01894 35.0871 4.32386 35.2955 4.71023C35.5076 5.09659 35.6136 5.57955 35.6136 6.15909V12H33.6364V10.8011H33.5682C33.4432 11.0436 33.267 11.2708 33.0398 11.483C32.8163 11.6913 32.5341 11.8598 32.1932 11.9886C31.8561 12.1136 31.4602 12.1761 31.0057 12.1761ZM31.5398 10.6648C31.9527 10.6648 32.3106 10.5833 32.6136 10.4205C32.9167 10.2538 33.1496 10.0341 33.3125 9.76136C33.4792 9.48864 33.5625 9.19129 33.5625 8.86932V7.84091C33.4981 7.89394 33.3883 7.94318 33.233 7.98864C33.0814 8.03409 32.911 8.07386 32.7216 8.10795C32.5322 8.14205 32.3447 8.17235 32.1591 8.19886C31.9735 8.22538 31.8125 8.24811 31.6761 8.26705C31.3693 8.30871 31.0947 8.37689 30.8523 8.47159C30.6098 8.56629 30.4186 8.69886 30.2784 8.86932C30.1383 9.03598 30.0682 9.25189 30.0682 9.51705C30.0682 9.89583 30.2064 10.1818 30.483 10.375C30.7595 10.5682 31.1117 10.6648 31.5398 10.6648ZM42.0398 3.27273V4.86364H37.0227V3.27273H42.0398ZM38.2614 1.18182H40.3182V9.375C40.3182 9.65152 40.3598 9.86364 40.4432 10.0114C40.5303 10.1553 40.6439 10.2538 40.7841 10.3068C40.9242 10.3598 41.0795 10.3864 41.25 10.3864C41.3788 10.3864 41.4962 10.3769 41.6023 10.358C41.7121 10.339 41.7955 10.322 41.8523 10.3068L42.1989 11.9148C42.089 11.9527 41.9318 11.9943 41.7273 12.0398C41.5265 12.0852 41.2803 12.1117 40.9886 12.1193C40.4735 12.1345 40.0095 12.0568 39.5966 11.8864C39.1837 11.7121 38.8561 11.4432 38.6136 11.0795C38.375 10.7159 38.2576 10.2614 38.2614 9.71591V1.18182ZM47.5298 12.1705C46.6548 12.1705 45.8991 11.9886 45.2628 11.625C44.6302 11.2576 44.1435 10.7386 43.8026 10.0682C43.4616 9.39394 43.2912 8.60038 43.2912 7.6875C43.2912 6.78977 43.4616 6.00189 43.8026 5.32386C44.1473 4.64205 44.6283 4.11174 45.2457 3.73295C45.8632 3.35038 46.5885 3.15909 47.4219 3.15909C47.9598 3.15909 48.4673 3.24621 48.9446 3.42045C49.4257 3.59091 49.8499 3.85606 50.2173 4.21591C50.5885 4.57576 50.8802 5.03409 51.0923 5.59091C51.3045 6.14394 51.4105 6.80303 51.4105 7.56818V8.19886H44.2571V6.8125H49.4389C49.4351 6.41856 49.3499 6.06818 49.1832 5.76136C49.0166 5.45076 48.7836 5.20644 48.4844 5.02841C48.1889 4.85038 47.8442 4.76136 47.4503 4.76136C47.0298 4.76136 46.6605 4.86364 46.3423 5.06818C46.0241 5.26894 45.776 5.53409 45.598 5.86364C45.4238 6.18939 45.3348 6.54735 45.331 6.9375V8.14773C45.331 8.6553 45.4238 9.09091 45.6094 9.45455C45.795 9.81439 46.0545 10.0909 46.3878 10.2841C46.7211 10.4735 47.1113 10.5682 47.5582 10.5682C47.8575 10.5682 48.1283 10.5265 48.3707 10.4432C48.6132 10.3561 48.8234 10.2292 49.0014 10.0625C49.1795 9.89583 49.3139 9.68939 49.4048 9.44318L51.3253 9.65909C51.2041 10.1667 50.973 10.6098 50.6321 10.9886C50.295 11.3636 49.8632 11.6553 49.3366 11.8636C48.8101 12.0682 48.2079 12.1705 47.5298 12.1705ZM59.6307 12.1761C59.0777 12.1761 58.5795 12.0777 58.1364 11.8807C57.697 11.6799 57.3485 11.3845 57.0909 10.9943C56.8371 10.6042 56.7102 10.1231 56.7102 9.55114C56.7102 9.05871 56.8011 8.65152 56.983 8.32955C57.1648 8.00758 57.4129 7.75 57.7273 7.55682C58.0417 7.36364 58.3958 7.2178 58.7898 7.11932C59.1875 7.01705 59.5985 6.94318 60.0227 6.89773C60.5341 6.8447 60.9489 6.79735 61.267 6.75568C61.5852 6.71023 61.8163 6.64205 61.9602 6.55114C62.108 6.45644 62.1818 6.31061 62.1818 6.11364V6.07955C62.1818 5.65152 62.0549 5.32008 61.8011 5.08523C61.5473 4.85038 61.1818 4.73295 60.7045 4.73295C60.2008 4.73295 59.8011 4.8428 59.5057 5.0625C59.214 5.2822 59.017 5.54167 58.9148 5.84091L56.9943 5.56818C57.1458 5.03788 57.3958 4.5947 57.7443 4.23864C58.0928 3.87879 58.5189 3.60985 59.0227 3.43182C59.5265 3.25 60.0833 3.15909 60.6932 3.15909C61.1136 3.15909 61.5322 3.20833 61.9489 3.30682C62.3655 3.4053 62.7462 3.56818 63.0909 3.79545C63.4356 4.01894 63.7121 4.32386 63.9205 4.71023C64.1326 5.09659 64.2386 5.57955 64.2386 6.15909V12H62.2614V10.8011H62.1932C62.0682 11.0436 61.892 11.2708 61.6648 11.483C61.4413 11.6913 61.1591 11.8598 60.8182 11.9886C60.4811 12.1136 60.0852 12.1761 59.6307 12.1761ZM60.1648 10.6648C60.5777 10.6648 60.9356 10.5833 61.2386 10.4205C61.5417 10.2538 61.7746 10.0341 61.9375 9.76136C62.1042 9.48864 62.1875 9.19129 62.1875 8.86932V7.84091C62.1231 7.89394 62.0133 7.94318 61.858 7.98864C61.7064 8.03409 61.536 8.07386 61.3466 8.10795C61.1572 8.14205 60.9697 8.17235 60.7841 8.19886C60.5985 8.22538 60.4375 8.24811 60.3011 8.26705C59.9943 8.30871 59.7197 8.37689 59.4773 8.47159C59.2348 8.56629 59.0436 8.69886 58.9034 8.86932C58.7633 9.03598 58.6932 9.25189 58.6932 9.51705C58.6932 9.89583 58.8314 10.1818 59.108 10.375C59.3845 10.5682 59.7367 10.6648 60.1648 10.6648ZM68.3636 6.88636V12H66.3068V3.27273H68.2727V4.75568H68.375C68.5758 4.26705 68.8958 3.87879 69.3352 3.59091C69.7784 3.30303 70.3258 3.15909 70.9773 3.15909C71.5795 3.15909 72.1042 3.28788 72.5511 3.54545C73.0019 3.80303 73.3504 4.17614 73.5966 4.66477C73.8466 5.15341 73.9697 5.74621 73.9659 6.44318V12H71.9091V6.76136C71.9091 6.17803 71.7576 5.72159 71.4545 5.39205C71.1553 5.0625 70.7405 4.89773 70.2102 4.89773C69.8504 4.89773 69.5303 4.97727 69.25 5.13636C68.9735 5.29167 68.7557 5.51705 68.5966 5.8125C68.4413 6.10795 68.3636 6.46591 68.3636 6.88636ZM82.5369 12.1761C81.9839 12.1761 81.4858 12.0777 81.0426 11.8807C80.6032 11.6799 80.2547 11.3845 79.9972 10.9943C79.7434 10.6042 79.6165 10.1231 79.6165 9.55114C79.6165 9.05871 79.7074 8.65152 79.8892 8.32955C80.071 8.00758 80.3191 7.75 80.6335 7.55682C80.9479 7.36364 81.3021 7.2178 81.696 7.11932C82.0938 7.01705 82.5047 6.94318 82.929 6.89773C83.4403 6.8447 83.8551 6.79735 84.1733 6.75568C84.4915 6.71023 84.7225 6.64205 84.8665 6.55114C85.0142 6.45644 85.0881 6.31061 85.0881 6.11364V6.07955C85.0881 5.65152 84.9612 5.32008 84.7074 5.08523C84.4536 4.85038 84.0881 4.73295 83.6108 4.73295C83.107 4.73295 82.7074 4.8428 82.4119 5.0625C82.1203 5.2822 81.9233 5.54167 81.821 5.84091L79.9006 5.56818C80.0521 5.03788 80.3021 4.5947 80.6506 4.23864C80.9991 3.87879 81.4252 3.60985 81.929 3.43182C82.4328 3.25 82.9896 3.15909 83.5994 3.15909C84.0199 3.15909 84.4384 3.20833 84.8551 3.30682C85.2718 3.4053 85.6525 3.56818 85.9972 3.79545C86.3419 4.01894 86.6184 4.32386 86.8267 4.71023C87.0388 5.09659 87.1449 5.57955 87.1449 6.15909V12H85.1676V10.8011H85.0994C84.9744 11.0436 84.7983 11.2708 84.571 11.483C84.3475 11.6913 84.0653 11.8598 83.7244 11.9886C83.3873 12.1136 82.9915 12.1761 82.5369 12.1761ZM83.071 10.6648C83.4839 10.6648 83.8419 10.5833 84.1449 10.4205C84.4479 10.2538 84.6809 10.0341 84.8438 9.76136C85.0104 9.48864 85.0938 9.19129 85.0938 8.86932V7.84091C85.0294 7.89394 84.9195 7.94318 84.7642 7.98864C84.6127 8.03409 84.4422 8.07386 84.2528 8.10795C84.0634 8.14205 83.8759 8.17235 83.6903 8.19886C83.5047 8.22538 83.3438 8.24811 83.2074 8.26705C82.9006 8.30871 82.6259 8.37689 82.3835 8.47159C82.1411 8.56629 81.9498 8.69886 81.8097 8.86932C81.6695 9.03598 81.5994 9.25189 81.5994 9.51705C81.5994 9.89583 81.7377 10.1818 82.0142 10.375C82.2907 10.5682 82.643 10.6648 83.071 10.6648ZM93.0199 12.1705C92.1487 12.1705 91.4006 11.9792 90.7756 11.5966C90.1544 11.214 89.6752 10.6856 89.3381 10.0114C89.0047 9.33333 88.8381 8.55303 88.8381 7.67045C88.8381 6.78409 89.0085 6.00189 89.3494 5.32386C89.6903 4.64205 90.1714 4.11174 90.7926 3.73295C91.4176 3.35038 92.1563 3.15909 93.0085 3.15909C93.7169 3.15909 94.3438 3.28977 94.8892 3.55114C95.4384 3.80871 95.8759 4.17424 96.2017 4.64773C96.5275 5.11742 96.7131 5.66667 96.7585 6.29545H94.7926C94.7131 5.875 94.5237 5.52462 94.2244 5.24432C93.929 4.96023 93.5331 4.81818 93.0369 4.81818C92.6165 4.81818 92.2472 4.93182 91.929 5.15909C91.6108 5.38258 91.3627 5.70455 91.1847 6.125C91.0104 6.54545 90.9233 7.04924 90.9233 7.63636C90.9233 8.23106 91.0104 8.74242 91.1847 9.17045C91.3589 9.5947 91.6032 9.92235 91.9176 10.1534C92.2358 10.3807 92.6089 10.4943 93.0369 10.4943C93.34 10.4943 93.6108 10.4375 93.8494 10.3239C94.0919 10.2064 94.2945 10.0379 94.4574 9.81818C94.6203 9.59848 94.732 9.33144 94.7926 9.01705H96.7585C96.7093 9.63447 96.5275 10.1818 96.2131 10.6591C95.8987 11.1326 95.4706 11.5038 94.929 11.7727C94.3873 12.0379 93.7509 12.1705 93.0199 12.1705ZM102.254 12.1705C101.383 12.1705 100.635 11.9792 100.01 11.5966C99.3887 11.214 98.9096 10.6856 98.5724 10.0114C98.2391 9.33333 98.0724 8.55303 98.0724 7.67045C98.0724 6.78409 98.2429 6.00189 98.5838 5.32386C98.9247 4.64205 99.4058 4.11174 100.027 3.73295C100.652 3.35038 101.391 3.15909 102.243 3.15909C102.951 3.15909 103.578 3.28977 104.124 3.55114C104.673 3.80871 105.11 4.17424 105.436 4.64773C105.762 5.11742 105.947 5.66667 105.993 6.29545H104.027C103.947 5.875 103.758 5.52462 103.459 5.24432C103.163 4.96023 102.768 4.81818 102.271 4.81818C101.851 4.81818 101.482 4.93182 101.163 5.15909C100.845 5.38258 100.597 5.70455 100.419 6.125C100.245 6.54545 100.158 7.04924 100.158 7.63636C100.158 8.23106 100.245 8.74242 100.419 9.17045C100.593 9.5947 100.838 9.92235 101.152 10.1534C101.47 10.3807 101.843 10.4943 102.271 10.4943C102.574 10.4943 102.845 10.4375 103.084 10.3239C103.326 10.2064 103.529 10.0379 103.692 9.81818C103.855 9.59848 103.966 9.33144 104.027 9.01705H105.993C105.944 9.63447 105.762 10.1818 105.447 10.6591C105.133 11.1326 104.705 11.5038 104.163 11.7727C103.622 12.0379 102.985 12.1705 102.254 12.1705ZM111.489 12.1705C110.636 12.1705 109.898 11.983 109.273 11.608C108.648 11.233 108.163 10.7083 107.818 10.0341C107.477 9.35985 107.307 8.57197 107.307 7.67045C107.307 6.76894 107.477 5.97917 107.818 5.30114C108.163 4.62311 108.648 4.09659 109.273 3.72159C109.898 3.34659 110.636 3.15909 111.489 3.15909C112.341 3.15909 113.08 3.34659 113.705 3.72159C114.33 4.09659 114.813 4.62311 115.153 5.30114C115.498 5.97917 115.67 6.76894 115.67 7.67045C115.67 8.57197 115.498 9.35985 115.153 10.0341C114.813 10.7083 114.33 11.233 113.705 11.608C113.08 11.983 112.341 12.1705 111.489 12.1705ZM111.5 10.5227C111.962 10.5227 112.348 10.3958 112.659 10.142C112.97 9.88447 113.201 9.53977 113.352 9.10795C113.508 8.67614 113.585 8.19508 113.585 7.66477C113.585 7.13068 113.508 6.64773 113.352 6.21591C113.201 5.7803 112.97 5.43371 112.659 5.17614C112.348 4.91856 111.962 4.78977 111.5 4.78977C111.027 4.78977 110.633 4.91856 110.318 5.17614C110.008 5.43371 109.775 5.7803 109.619 6.21591C109.468 6.64773 109.392 7.13068 109.392 7.66477C109.392 8.19508 109.468 8.67614 109.619 9.10795C109.775 9.53977 110.008 9.88447 110.318 10.142C110.633 10.3958 111.027 10.5227 111.5 10.5227ZM122.979 8.32955V3.27273H125.036V12H123.041V10.4489H122.95C122.753 10.9375 122.429 11.3371 121.979 11.6477C121.532 11.9583 120.981 12.1136 120.325 12.1136C119.753 12.1136 119.248 11.9867 118.808 11.733C118.373 11.4754 118.032 11.1023 117.786 10.6136C117.539 10.1212 117.416 9.52652 117.416 8.82955V3.27273H119.473V8.51136C119.473 9.06439 119.625 9.50379 119.928 9.82955C120.231 10.1553 120.628 10.3182 121.121 10.3182C121.424 10.3182 121.717 10.2443 122.001 10.0966C122.286 9.94886 122.518 9.72917 122.7 9.4375C122.886 9.14205 122.979 8.77273 122.979 8.32955ZM129.207 6.88636V12H127.151V3.27273H129.116V4.75568H129.219C129.42 4.26705 129.74 3.87879 130.179 3.59091C130.622 3.30303 131.17 3.15909 131.821 3.15909C132.423 3.15909 132.948 3.28788 133.395 3.54545C133.846 3.80303 134.194 4.17614 134.44 4.66477C134.69 5.15341 134.813 5.74621 134.81 6.44318V12H132.753V6.76136C132.753 6.17803 132.601 5.72159 132.298 5.39205C131.999 5.0625 131.584 4.89773 131.054 4.89773C130.694 4.89773 130.374 4.97727 130.094 5.13636C129.817 5.29167 129.599 5.51705 129.44 5.8125C129.285 6.10795 129.207 6.46591 129.207 6.88636ZM141.259 3.27273V4.86364H136.241V3.27273H141.259ZM137.48 1.18182H139.537V9.375C139.537 9.65152 139.579 9.86364 139.662 10.0114C139.749 10.1553 139.863 10.2538 140.003 10.3068C140.143 10.3598 140.298 10.3864 140.469 10.3864C140.598 10.3864 140.715 10.3769 140.821 10.358C140.931 10.339 141.014 10.322 141.071 10.3068L141.418 11.9148C141.308 11.9527 141.151 11.9943 140.946 12.0398C140.745 12.0852 140.499 12.1117 140.207 12.1193C139.692 12.1345 139.228 12.0568 138.815 11.8864C138.402 11.7121 138.075 11.4432 137.832 11.0795C137.594 10.7159 137.476 10.2614 137.48 9.71591V1.18182Z" fill="black"/>
</svg>
